<svg width="209" height="262" viewBox="0 0 209 262" fill="none" xmlns="http://www.w3.org/2000/svg">
<path d="M23.4557 80.6755C20.481 76.6299 20.6727 67.5742 20.6727 67.5742C20.6727 57.9999 87 44.4999 101.5 42.9999C116 41.4999 188 42 188.291 54.8584C188.291 54.8584 188.13 75.5 187 82C186.173 86.7528 183.848 93.3054 182.596 98C180.734 104.983 176.763 111.5 174 119C170.5 128.5 166.974 139.536 164 149C162.437 153.974 158.487 160.5 157 166C154.109 176.696 147.687 191 144 195C137.281 202.29 130.264 211.143 125.097 219.608C121.5 225.5 122 229 120 248C119.574 252.046 117.254 257.904 111 258.5C102.5 259.31 92.1666 250 88.5 243C85.1828 236.667 85.1855 229.514 82.2611 222.969C79.2175 216.157 75.6923 207.424 70.9367 201.754C65.0111 194.689 55.0794 183.768 54.5816 174.31C54.3621 170.139 53.5816 164 52.5 160C51.4183 156 46.1342 145.671 45.5 142.5C44.5 137.5 38.5 130.864 36.0002 123.19C32.6432 112.885 36.3406 101.734 32.7035 91.5503C31.0477 86.9139 26.2753 84.5101 23.4557 80.6755Z" fill="#F5CC7A"/>
<path d="M23.4557 80.6755C20.481 76.6299 20.6727 67.5742 20.6727 67.5742C20.6727 57.9999 87 44.4999 101.5 42.9999C116 41.4999 188 42 188.291 54.8584C188.291 54.8584 188.13 75.5 187 82C186.173 86.7528 183.848 93.3054 182.596 98C180.734 104.983 176.763 111.5 174 119C170.5 128.5 166.974 139.536 164 149C162.437 153.974 158.487 160.5 157 166C154.109 176.696 147.687 191 144 195C137.281 202.29 130.264 211.143 125.097 219.608C121.5 225.5 122 229 120 248C119.574 252.046 117.254 257.904 111 258.5C102.5 259.31 92.1666 250 88.5 243C85.1828 236.667 85.1855 229.514 82.2611 222.969C79.2175 216.157 75.6923 207.424 70.9367 201.754C65.0111 194.689 55.0794 183.768 54.5816 174.31C54.3621 170.139 53.5816 164 52.5 160C51.4183 156 46.1342 145.671 45.5 142.5C44.5 137.5 38.5 130.864 36.0002 123.19C32.6432 112.885 36.3406 101.734 32.7035 91.5503C31.0477 86.9139 26.2753 84.5101 23.4557 80.6755Z" fill="#F20D0D" fill-opacity="0.2"/>
<path d="M23.4557 80.6755C20.481 76.6299 20.6727 67.5742 20.6727 67.5742C20.6727 57.9999 87 44.4999 101.5 42.9999C116 41.4999 188 42 188.291 54.8584C188.291 54.8584 188.13 75.5 187 82C186.173 86.7528 183.848 93.3054 182.596 98C180.734 104.983 176.763 111.5 174 119C170.5 128.5 166.974 139.536 164 149C162.437 153.974 158.487 160.5 157 166C154.109 176.696 147.687 191 144 195C137.281 202.29 130.264 211.143 125.097 219.608C121.5 225.5 122 229 120 248C119.574 252.046 117.254 257.904 111 258.5C102.5 259.31 92.1666 250 88.5 243C85.1828 236.667 85.1855 229.514 82.2611 222.969C79.2175 216.157 75.6923 207.424 70.9367 201.754C65.0111 194.689 55.0794 183.768 54.5816 174.31C54.3621 170.139 53.5816 164 52.5 160C51.4183 156 46.1342 145.671 45.5 142.5C44.5 137.5 38.5 130.864 36.0002 123.19C32.6432 112.885 36.3406 101.734 32.7035 91.5503C31.0477 86.9139 26.2753 84.5101 23.4557 80.6755Z" stroke="black" stroke-width="6" stroke-linecap="round"/>
<path fill-rule="evenodd" clip-rule="evenodd" d="M20.6727 67.5742C20.6727 67.5742 20.481 76.6299 23.4557 80.6755C24.5485 82.1617 25.9347 83.433 27.319 84.7026C29.5065 86.7088 31.6895 88.7109 32.7035 91.5503C34.5573 96.7409 34.5057 102.183 34.4539 107.636C34.4042 112.881 34.3543 118.137 36.0002 123.19C37.2651 127.073 39.4261 130.69 41.3821 133.964C43.2917 137.161 45.006 140.03 45.5 142.5C45.826 144.13 47.3808 147.652 48.9619 151.233C50.4564 154.618 51.9744 158.056 52.5 160C53.5816 164 54.3621 170.139 54.5816 174.31C55.0382 182.986 63.4329 192.893 69.392 199.925C69.9292 200.559 70.4467 201.17 70.9367 201.754C75.1042 206.723 78.3268 214.044 81.1084 220.363C81.5009 221.255 81.8847 222.126 82.2611 222.969C83.6252 226.022 84.3524 229.207 85.0767 232.379C85.9053 236.009 86.73 239.621 88.5 243C92.1666 250 102.5 259.31 111 258.5C117.254 257.904 119.574 252.046 120 248C120.044 247.584 120.086 247.175 120.128 246.774C119.618 246.164 119.117 245.544 118.634 244.907C117.923 243.97 117.21 243.032 116.496 242.093C109.607 233.032 102.604 223.822 96.6754 214.17C86.1529 197.04 77.1503 178.97 69.8348 160.224C68.9552 157.97 68.3552 155.795 67.7424 153.466C67.1647 151.271 66.2204 149.198 65.2762 147.127C64.8526 146.197 64.429 145.267 64.0386 144.327C62.469 140.546 61.0261 136.74 59.5838 132.936C58.8769 131.072 58.1702 129.208 57.4487 127.347C55.5481 122.445 54.4214 117.142 53.4563 112.003C52.073 104.636 50.0333 97.6192 47.8284 90.4533C46.0389 84.6372 44.5457 78.711 43.0556 72.7972C42.5339 70.7265 42.0126 68.6573 41.479 66.595C41.015 64.8013 39.2662 61.133 37.3527 57.6383C27.5468 61.0029 20.6727 64.492 20.6727 67.5742Z" fill="#E58738" fill-opacity="0.3"/>
<path fill-rule="evenodd" clip-rule="evenodd" d="M180.451 35C178.984 38.2845 177.83 41.6609 177.37 44.6628C176.887 47.8165 177.699 50.6228 178.587 53.6955C179.91 58.2685 181.403 63.4314 179.053 71.2079C177.766 75.4687 176.778 79.8166 175.788 84.1696C173.239 95.3788 170.683 106.622 163 116.5C149 134.5 145.857 151 145 158C143.899 166.993 142.663 173.828 141.54 180.041C140.258 187.131 139.122 193.41 138.501 201.161C140.504 198.695 142.534 196.318 144.539 194.077C148.407 189.754 155.143 174.295 158.176 162.735C159.025 159.501 160.638 155.938 162.197 152.496C163.504 149.613 164.771 146.814 165.519 144.363C168.639 134.135 172.338 122.208 176.009 111.941C177.217 108.562 178.646 105.368 180.042 102.245C181.996 97.8757 183.888 93.6459 185.027 89.245C185.484 87.4786 186.078 85.4689 186.694 83.3827C187.848 79.4763 189.081 75.3014 189.646 71.9531C190.832 64.9283 191 42.6201 191 42.6201C190.93 39.4156 186.86 36.9213 180.451 35Z" fill="#FFCDA2" fill-opacity="0.7"/>
<path d="M94.5 153.761C99 154.261 109.5 154.961 115.5 153.761" stroke="black" stroke-width="3" stroke-linecap="round"/>
<path d="M78.5 149.549C78.5 146.549 80.4604 138.301 82.5 136.261C86 132.761 88.5 139.981 90.5 147.481C91.1087 147.386 91.6148 147.312 92 147.261C98.408 146.418 110.327 146.127 123 146.466C125 143.3 128.5 138.261 129 134.761C129.5 131.261 137 140.598 137 147.098C132.388 146.8 127.644 146.591 123 146.466C110.327 146.127 98.408 146.418 92 147.261C91.6148 147.312 91.1087 147.386 90.5 147.481C87.8942 147.885 83.4097 148.661 78.5 149.549Z" fill="#E5E5E5"/>
<path d="M78.5 149.549L78.7671 151.025L78.5 149.549ZM82.5 136.261L83.5607 137.322L83.5607 137.322L82.5 136.261ZM129 134.761L127.515 134.549V134.549L129 134.761ZM137 147.098L136.903 148.595L137 147.098ZM152.947 145.367C152.729 144.568 151.905 144.096 151.105 144.314C150.306 144.532 149.835 145.357 150.053 146.156L152.947 145.367ZM151.553 151.656C151.771 152.455 152.595 152.927 153.395 152.709C154.194 152.491 154.665 151.666 154.447 150.867L151.553 151.656ZM60.9926 150.911C61.075 150.086 60.4736 149.351 59.6493 149.269C58.8249 149.186 58.0899 149.788 58.0074 150.612L60.9926 150.911ZM57.5074 155.612C57.425 156.437 58.0264 157.172 58.8507 157.254C59.6751 157.336 60.4101 156.735 60.4926 155.911L57.5074 155.612ZM92 147.261L92.1957 148.749L92 147.261ZM80 149.549C80 148.251 80.4478 145.593 81.1808 142.945C81.5418 141.641 81.9578 140.391 82.395 139.363C82.8515 138.289 83.2653 137.617 83.5607 137.322L81.4393 135.201C80.7149 135.925 80.1188 137.049 79.6341 138.189C79.13 139.375 78.6735 140.757 78.2895 142.145C77.5324 144.88 77 147.846 77 149.549H80ZM83.5607 137.322C83.8834 136.999 84.0995 136.897 84.2 136.867C84.2711 136.846 84.3154 136.847 84.3903 136.877C84.6472 136.979 85.1353 137.393 85.759 138.488C86.9612 140.6 88.0444 144.094 89.0506 147.867L91.9494 147.094C90.9556 143.368 89.7888 139.502 88.366 137.004C87.6772 135.794 86.759 134.591 85.5003 134.09C84.8174 133.818 84.0765 133.771 83.3332 133.995C82.6192 134.21 81.9916 134.648 81.4393 135.201L83.5607 137.322ZM124.268 147.267C125.238 145.732 126.656 143.613 127.867 141.479C129.061 139.374 130.192 137.027 130.485 134.974L127.515 134.549C127.308 135.996 126.439 137.918 125.258 139.999C124.094 142.051 122.762 144.034 121.732 145.665L124.268 147.267ZM130.485 134.974C130.512 134.783 130.479 135.309 129.871 135.47C129.486 135.572 129.346 135.37 129.664 135.569C130.186 135.896 131.033 136.746 131.967 138.052C133.83 140.657 135.5 144.305 135.5 147.098H138.5C138.5 143.39 136.42 139.12 134.408 136.307C133.404 134.904 132.283 133.67 131.257 133.027C130.802 132.742 129.995 132.334 129.103 132.57C127.99 132.865 127.613 133.865 127.515 134.549L130.485 134.974ZM150.053 146.156L150.803 148.906L153.697 148.117L152.947 145.367L150.053 146.156ZM150.803 148.906L151.553 151.656L154.447 150.867L153.697 148.117L150.803 148.906ZM58.0074 150.612L57.7574 153.112L60.7426 153.411L60.9926 150.911L58.0074 150.612ZM57.7574 153.112L57.5074 155.612L60.4926 155.911L60.7426 153.411L57.7574 153.112ZM59.5663 154.728C64.077 153.755 71.837 152.279 78.7671 151.025L78.2329 148.073C71.2975 149.328 63.4963 150.811 58.9337 151.795L59.5663 154.728ZM78.7671 151.025C83.6745 150.137 88.1436 149.364 90.73 148.963L90.27 145.999C87.6447 146.406 83.145 147.184 78.2329 148.073L78.7671 151.025ZM90.73 148.963C91.3337 148.869 91.827 148.797 92.1957 148.749L91.8043 145.774C91.4027 145.827 90.8836 145.903 90.27 145.999L90.73 148.963ZM92.1957 148.749C98.4814 147.922 110.303 147.627 122.96 147.966L123.04 144.967C110.351 144.627 98.3346 144.915 91.8043 145.774L92.1957 148.749ZM122.96 147.966C127.586 148.09 132.312 148.298 136.903 148.595L137.097 145.601C132.464 145.302 127.701 145.092 123.04 144.967L122.96 147.966ZM136.903 148.595C142.27 148.941 147.446 149.408 152.059 149.999L152.441 147.024C147.749 146.422 142.508 145.95 137.097 145.601L136.903 148.595Z" fill="black"/>
<path d="M35.755 100.665L35.0463 101.071L35.0022 101.886C34.4748 111.633 34.5915 117.062 35.4279 121.027C36.1802 124.592 37.5165 126.939 39.25 129.985C39.4614 130.356 39.6788 130.738 39.9017 131.134C39.9476 131.231 40.0061 131.331 40.08 131.432C40.2429 131.654 40.4613 131.852 40.7332 132.011C41.2607 132.32 41.9524 132.467 42.8303 132.467C52.6136 132.467 60.6835 124.931 60.6835 115.467C60.6835 106.003 52.6136 98.467 42.8303 98.467C41.1865 98.467 40.0292 98.6238 38.9176 99.0288C38.0262 99.3536 37.1945 99.8342 36.2489 100.381C36.0878 100.474 35.9235 100.569 35.755 100.665Z" fill="#F73232" stroke="black" stroke-width="3"/>
<path d="M80 188.5C73.6 184.9 66 187.5 64 190C68.3333 196 75.942 209.07 78 212.5C81 217.5 88 193 80 188.5Z" fill="#F73232" stroke="black" stroke-width="3"/>
<path d="M117 192C119.5 186.5 125 186.167 128.5 185C132 183.833 135.5 184 137.5 185C140.835 186.668 144.088 190.735 145.452 192.439L145.5 192.5L137.5 202.5L128.5 214.5C125.5 213 117.8 208.2 117 205C116 201 115.294 195.754 117 192Z" fill="#F73232" stroke="black" stroke-width="3"/>
<path d="M23.4557 80.6755C20.481 76.6299 20.6727 67.5742 20.6727 67.5742C20.6727 57.9999 87 44.4999 101.5 42.9999C116 41.4999 188 42 188.291 54.8584C188.291 54.8584 188.13 75.5 187 82C186.173 86.7528 183.848 93.3054 182.596 98C180.734 104.983 176.763 111.5 174 119C170.5 128.5 166.974 139.536 164 149C162.437 153.974 158.487 160.5 157 166C154.109 176.696 147.687 191 144 195C137.281 202.29 130.264 211.143 125.097 219.608C121.5 225.5 122 229 120 248C119.574 252.046 117.254 257.904 111 258.5C102.5 259.31 92.1666 250 88.5 243C85.1828 236.667 85.1855 229.514 82.2611 222.969C79.2175 216.157 75.6923 207.424 70.9367 201.754C65.0111 194.689 55.0794 183.768 54.5816 174.31C54.3621 170.139 53.5816 164 52.5 160C51.4183 156 46.1342 145.671 45.5 142.5C44.5 137.5 38.5 130.864 36.0002 123.19C32.6432 112.885 36.3406 101.734 32.7035 91.5503C31.0477 86.9139 26.2753 84.5101 23.4557 80.6755Z" stroke="black" stroke-width="6" stroke-linecap="round"/>
<path d="M42.135 12.6124C30.8134 13.8703 12.6407 19.242 9.14068 24.6511C-0.0298429 38.8237 -0.613028 59.725 19.1407 65.6511C29.1407 68.6511 48.1407 55.1511 63.1406 52.6511C80.9651 48.4072 97.4031 46.1511 113.641 46.1511C129.141 46.1511 144.641 48.1231 161.641 50.1511C172.641 51.4634 185.143 55.3313 190.141 52.1511C198.708 46.6991 211.641 21.1511 202.141 12.6511C198.304 9.21859 188.641 7.87547 172.641 6.15112C150.141 3.72627 113.767 1.3289 82.9196 4.57598C69.0702 6.03382 55.8058 11.0934 42.135 12.6124Z" fill="#C99265"/>
<path d="M42.135 12.6124C30.8134 13.8703 12.6407 19.242 9.14068 24.6511C-0.0298429 38.8237 -0.613028 59.725 19.1407 65.6511C29.1407 68.6511 48.1407 55.1511 63.1406 52.6511C80.9651 48.4072 97.4031 46.1511 113.641 46.1511C129.141 46.1511 144.641 48.1231 161.641 50.1511C172.641 51.4634 185.143 55.3313 190.141 52.1511C198.708 46.6991 211.641 21.1511 202.141 12.6511C198.304 9.21859 188.641 7.87547 172.641 6.15112C150.141 3.72627 113.767 1.3289 82.9196 4.57598C69.0702 6.03382 55.8058 11.0934 42.135 12.6124Z" fill="url(#paint0_diamond_7_95)" fill-opacity="0.2"/>
<path d="M42.135 12.6124C30.8134 13.8703 12.6407 19.242 9.14068 24.6511C-0.0298429 38.8237 -0.613028 59.725 19.1407 65.6511C29.1407 68.6511 48.1407 55.1511 63.1406 52.6511C80.9651 48.4072 97.4031 46.1511 113.641 46.1511C129.141 46.1511 144.641 48.1231 161.641 50.1511C172.641 51.4634 185.143 55.3313 190.141 52.1511C198.708 46.6991 211.641 21.1511 202.141 12.6511C198.304 9.21859 188.641 7.87547 172.641 6.15112C150.141 3.72627 113.767 1.3289 82.9196 4.57598C69.0702 6.03382 55.8058 11.0934 42.135 12.6124Z" stroke="black" stroke-width="6" stroke-linecap="round"/>
<path fill-rule="evenodd" clip-rule="evenodd" d="M13.7168 20.921C25.971 22.9283 39.1356 23.5539 48.5 21C61.4282 17.4741 76.5015 16.6648 91.286 15.871C98.1684 15.5015 104.988 15.1353 111.5 14.5C150.63 10.6825 172 10.5 202 25.5C202.988 25.9941 203.947 26.4989 204.873 27.0013C206.089 21.149 205.615 15.7599 202.141 12.6511C198.304 9.21857 188.641 7.87545 172.641 6.15111C150.141 3.72625 113.767 1.32888 82.9197 4.57597C75.897 5.3152 69.0247 6.98051 62.1736 8.6407C55.5137 10.2546 48.8737 11.8636 42.135 12.6123C33.4563 13.5766 20.7519 16.9582 13.7168 20.921Z" fill="#E8B890"/>
<path fill-rule="evenodd" clip-rule="evenodd" d="M13.7168 20.921C25.971 22.9283 39.1356 23.5539 48.5 21C61.4282 17.4741 76.5015 16.6648 91.286 15.871C98.1684 15.5015 104.988 15.1353 111.5 14.5C150.63 10.6825 172 10.5 202 25.5C202.988 25.9941 203.947 26.4989 204.873 27.0013C206.089 21.149 205.615 15.7599 202.141 12.6511C198.304 9.21857 188.641 7.87545 172.641 6.15111C150.141 3.72625 113.767 1.32888 82.9197 4.57597C75.897 5.3152 69.0247 6.98051 62.1736 8.6407C55.5137 10.2546 48.8737 11.8636 42.135 12.6123C33.4563 13.5766 20.7519 16.9582 13.7168 20.921Z" fill="url(#paint1_diamond_7_95)" fill-opacity="0.2"/>
<path fill-rule="evenodd" clip-rule="evenodd" d="M196.67 45.2995C191.54 43.4787 186.256 41.969 180.895 41.0545C175.909 40.2039 171.13 38.6036 166.359 37.0063C166.189 36.9496 166.019 36.8928 165.85 36.8361C159.98 34.8722 154.314 34.6596 148.21 34.4306C148 34.4227 147.79 34.4148 147.578 34.4068C141.475 34.1758 135.35 34.8748 129.225 35.5738C124.405 36.1238 119.585 36.6738 114.777 36.7705C111.598 36.8344 108.306 36.5699 104.925 36.2983C98.5532 35.7864 91.8627 35.2489 85 36.8361C76.8361 38.7242 69.4719 40.7682 62.3961 42.7322C50.1199 46.1397 38.7116 49.3062 25.5 51C17.8494 51.9808 16.7687 42.1842 15.7301 32.77C15.245 28.3728 14.7691 24.0591 13.6373 20.9659C11.5344 22.159 9.94759 23.4041 9.14068 24.6511C-0.029843 38.8237 -0.613028 59.725 19.1407 65.6511C24.906 67.3807 33.6629 63.6259 42.92 59.6565C49.7194 56.741 56.7887 53.7098 63.1406 52.6511C80.9651 48.4072 97.4031 46.1511 113.641 46.1511C128.227 46.1511 142.813 47.8975 158.65 49.7935C159.642 49.9122 160.639 50.0316 161.641 50.1511C164.788 50.5266 168.058 51.1112 171.241 51.6802C179.181 53.0997 186.573 54.4214 190.141 52.1511C192.19 50.8473 194.488 48.394 196.67 45.2995Z" fill="#B87137" fill-opacity="0.7"/>
<path d="M42.135 12.6124C30.8134 13.8703 12.6407 19.242 9.14068 24.6511C-0.0298429 38.8237 -0.613028 59.725 19.1407 65.6511C29.1407 68.6511 48.1407 55.1511 63.1406 52.6511C80.9651 48.4072 97.4031 46.1511 113.641 46.1511C129.141 46.1511 144.641 48.1231 161.641 50.1511C172.641 51.4634 185.143 55.3313 190.141 52.1511C198.708 46.6991 211.641 21.1511 202.141 12.6511C198.304 9.21859 188.641 7.87547 172.641 6.15112C150.141 3.72627 113.767 1.3289 82.9196 4.57598C69.0702 6.03382 55.8058 11.0934 42.135 12.6124Z" stroke="black" stroke-width="6" stroke-linecap="round"/>
<path d="M70.5 71C70.1284 67.5319 70.9298 64.6774 72.3817 62.3594C78.1449 53.158 94.7561 51.8037 100.124 61.241C101.678 63.9727 102.203 67.7258 101.5 73C100.5 80.5 86 84.5 83.5 84.5C81 84.5 72 85 70.5 71Z" fill="#F73232" stroke="black" stroke-width="3"/>
<path d="M140 86C138 73.2 149 68.6667 154 68.5C162.5 68.5 167 68.5 169.5 76.5C170.544 79.8407 170.5 86.6007 167 91.5C164.5 95 161 97.8333 157 98.5C152.167 99.6667 142 98.8 140 86Z" fill="#F73232" stroke="black" stroke-width="3"/>
<path d="M93.9295 124.5C87.1295 118.9 86.1667 110.88 86.5 107.713C94.9249 111.121 118.485 109.222 123.929 106.5C124.525 106.202 125.674 105.676 126.974 105C129.474 119.5 120.04 125.238 115.929 127C112.429 128.5 102.429 131.5 93.9295 124.5Z" fill="white"/>
<path d="M86.5 107.713C86.1667 110.88 87.1295 118.9 93.9295 124.5C102.429 131.5 112.429 128.5 115.929 127C120.04 125.238 129.474 119.5 126.974 105M86.5 107.713C85.6405 107.366 84.9386 106.963 84.4295 106.5C80.0295 102.5 82.5961 96.5 84.4295 94M86.5 107.713C94.9249 111.121 118.485 109.222 123.929 106.5C124.525 106.202 125.674 105.676 126.974 105M126.974 105C129.702 103.581 133.095 101.504 133.429 99.5C133.929 96.5 129.429 92 126.929 90M100 109.54C99.3333 112.54 100.9 117.9 108.5 117.5C116.1 117.1 115.667 111.178 114.5 108.678" stroke="black" stroke-width="3" stroke-linecap="round"/>
<path d="M114.5 108.678C110.1 109.253 104.885 109.591 100 109.54C99.3333 112.54 100.9 117.9 108.5 117.5C116.1 117.1 115.667 111.178 114.5 108.678Z" fill="#41B5CF"/>
<path d="M84.4295 94C82.5961 96.5 80.0295 102.5 84.4295 106.5C84.9386 106.963 85.6405 107.366 86.5 107.713C94.9249 111.121 118.485 109.222 123.929 106.5C124.525 106.202 125.674 105.676 126.974 105C129.702 103.581 133.095 101.504 133.429 99.5C133.929 96.5 129.429 92 126.929 90M100 109.54C99.3333 112.54 100.9 117.9 108.5 117.5C116.1 117.1 115.667 111.178 114.5 108.678" stroke="black" stroke-width="3" stroke-linecap="round"/>
<g style="mix-blend-mode:darken">
<path d="M58.2378 125.371C54.4959 130.067 44 134.214 41 132.5C38.7399 131.209 33.7932 122.596 35 121C36.3165 119.259 39.5978 123.183 42 125C45.0885 127.336 48.6061 128.121 52.1322 127.025C55.3151 125.669 59.5984 123.664 58.2378 125.371Z" fill="#D21212"/>
</g>
<g style="mix-blend-mode:darken">
<path d="M97.4026 78.7308C103.278 73.5852 83.6848 81.1495 80.1427 79.0392C73.2032 74.9047 71 62 70 67.5C69.3637 71 70.6427 83 80.1427 84C86.4325 84.6621 93.2479 82.3692 97.4026 78.7308Z" fill="#D21212"/>
</g>
<g style="mix-blend-mode:darken">
<path d="M165.5 93.5C147 97.5 142.5 90.5 140.5 77.5L139.5 84.5L141.5 92L149.5 99C158 98 161 98 165.5 93.5Z" fill="#D21212"/>
</g>
<g style="mix-blend-mode:darken">
<path d="M119 190.5C118.299 190.046 118.022 191.843 117.159 191.743C116.203 196.043 115.027 201.449 117.159 205.5C119.92 210.745 129.114 215.633 131.5 211C135.114 207.134 126.228 208.458 122.5 205C121.499 204.071 117.5 196.5 119 190.5Z" fill="#D21212"/>
</g>
<g style="mix-blend-mode:darken">
<path d="M81.5 207C79.5 200.5 66 187.312 62.5 189.5C61 190.438 75 208 77.5 212.5C77.8731 213.172 83.1241 212.278 81.5 207Z" fill="#D21212"/>
</g>
<g style="mix-blend-mode:darken">
<path d="M86 147.805C84 140.805 82.5 137.305 81.5 139.805L79 147.305C80 150.805 82.2919 148.335 86 147.805Z" fill="#F2F62A" fill-opacity="0.4"/>
</g>
<g style="mix-blend-mode:darken">
<path d="M132 145.805C130 138.805 128.5 135.305 127.5 137.805L125 145.305C126 148.805 128.292 146.335 132 145.805Z" fill="#F2F62A" fill-opacity="0.4"/>
</g>
<path d="M113 112.956C113 114.912 109.924 113.647 109.263 112.956C108.329 111.978 110.1 111 111.132 111C113 111 113 111.268 113 112.956Z" fill="#60DAF6"/>
<defs>
<radialGradient id="paint0_diamond_7_95" cx="0" cy="0" r="1" gradientUnits="userSpaceOnUse" gradientTransform="translate(104.239 34.5418) rotate(90) scale(31.5418 101.239)">
<stop stop-color="#C03F3F"/>
<stop offset="1" stop-color="#A51111" stop-opacity="0.53"/>
</radialGradient>
<radialGradient id="paint1_diamond_7_95" cx="0" cy="0" r="1" gradientUnits="userSpaceOnUse" gradientTransform="translate(104.472 30.6576) rotate(90) scale(27.6576 101.006)">
<stop stop-color="#C03F3F"/>
<stop offset="1" stop-color="#A51111" stop-opacity="0.53"/>
</radialGradient>
</defs>
</svg>
